<?xml version="1.0" encoding="UTF-8" standalone="no"?>
<!-- Created with Inkscape (http://www.inkscape.org/) -->

<svg
   width="12.7mm"
   height="12.7mm"
   viewBox="0 0 12.7 12.7"
   version="1.1"
   id="svg1"
   inkscape:version="1.4 (e7c3feb100, 2024-10-09)"
   sodipodi:docname="icon.svg"
   xmlns:inkscape="http://www.inkscape.org/namespaces/inkscape"
   xmlns:sodipodi="http://sodipodi.sourceforge.net/DTD/sodipodi-0.dtd"
   xmlns="http://www.w3.org/2000/svg"
   xmlns:svg="http://www.w3.org/2000/svg">
  <sodipodi:namedview
     id="namedview1"
     pagecolor="#ffffff"
     bordercolor="#000000"
     borderopacity="0.25"
     inkscape:showpageshadow="2"
     inkscape:pageopacity="0.0"
     inkscape:pagecheckerboard="0"
     inkscape:deskcolor="#d1d1d1"
     inkscape:document-units="mm"
     inkscape:zoom="5.580303"
     inkscape:cx="1.8816182"
     inkscape:cy="11.916916"
     inkscape:window-width="1920"
     inkscape:window-height="1011"
     inkscape:window-x="0"
     inkscape:window-y="0"
     inkscape:window-maximized="1"
     inkscape:current-layer="layer1" />
  <defs
     id="defs1" />
  <g
     inkscape:label="Capa 1"
     inkscape:groupmode="layer"
     id="layer1"
     transform="translate(-98.650002,-142.14999)">
    <g
       id="g2">
      <rect
         style="fill:#ffffff;stroke-width:0.661458;stroke-linecap:square;paint-order:stroke fill markers"
         id="rect1"
         width="12.7"
         height="12.7"
         x="98.650002"
         y="142.14999"
         ry="2.7025862" />
      <g
         id="g1"
         transform="matrix(1.3625096,0,0,1.3625096,-42.810978,2.3817338)"
         style="stroke-width:0.73394">
        <path
           style="color:#000000;font-style:normal;font-variant:normal;font-weight:normal;font-stretch:normal;font-size:medium;line-height:normal;font-family:sans-serif;font-variant-ligatures:normal;font-variant-position:normal;font-variant-caps:normal;font-variant-numeric:normal;font-variant-alternates:normal;font-variant-east-asian:normal;font-feature-settings:normal;font-variation-settings:normal;text-indent:0;text-align:start;text-decoration-line:none;text-decoration-style:solid;text-decoration-color:#000000;letter-spacing:normal;word-spacing:normal;text-transform:none;writing-mode:lr-tb;direction:ltr;text-orientation:mixed;dominant-baseline:auto;baseline-shift:baseline;text-anchor:start;white-space:normal;shape-padding:0;shape-margin:0;inline-size:0;clip-rule:nonzero;display:inline;overflow:visible;visibility:visible;isolation:auto;mix-blend-mode:normal;color-interpolation:sRGB;color-interpolation-filters:linearRGB;solid-color:#000000;solid-opacity:1;vector-effect:none;fill:#008eff;fill-opacity:1;fill-rule:nonzero;stroke:none;stroke-width:0.194189;stroke-linecap:square;stroke-linejoin:miter;stroke-miterlimit:4;stroke-dasharray:none;stroke-dashoffset:0;stroke-opacity:1;-inkscape-stroke:none;paint-order:stroke fill markers;color-rendering:auto;image-rendering:auto;shape-rendering:auto;text-rendering:auto;enable-background:accumulate;stop-color:#000000"
           d="m 110.69919,107.49469 -3.39238,-2.04224 a 0.33545892,0.33545892 0 0 0 -0.34367,-0.001 l -0.80618,0.47718 a 0.11970348,0.11970348 0 0 0 -9e-4,0.20548 l 1.66645,1.00605 a 0.1207365,0.1207365 0 0 1 -1.2e-4,0.20681 l -1.66621,1.00332 a 0.12032601,0.12032601 0 0 0 1.8e-4,0.20627 l 4.54289,2.72401 a 0.11341427,0.11341427 0 0 0 0.17154,-0.0973 v -0.97429 a 0.35447353,0.35447353 0 0 0 -0.17154,-0.3036 l -2.24788,-1.35469 a 0.12055744,0.12055744 0 0 1 6e-5,-0.20657 l 0.51522,-0.30991 a 0.33293946,0.33293946 0 0 1 0.34307,0 l 1.38929,0.83555 a 0.11323719,0.11323719 0 0 0 0.17154,-0.097 v -0.9743 a 0.35427815,0.35427815 0 0 0 -0.17154,-0.30353 z"
           id="path15" />
        <path
           style="color:#000000;font-style:normal;font-variant:normal;font-weight:normal;font-stretch:normal;font-size:medium;line-height:normal;font-family:sans-serif;font-variant-ligatures:normal;font-variant-position:normal;font-variant-caps:normal;font-variant-numeric:normal;font-variant-alternates:normal;font-variant-east-asian:normal;font-feature-settings:normal;font-variation-settings:normal;text-indent:0;text-align:start;text-decoration-line:none;text-decoration-style:solid;text-decoration-color:#000000;letter-spacing:normal;word-spacing:normal;text-transform:none;writing-mode:lr-tb;direction:ltr;text-orientation:mixed;dominant-baseline:auto;baseline-shift:baseline;text-anchor:start;white-space:normal;shape-padding:0;shape-margin:0;inline-size:0;clip-rule:nonzero;display:inline;overflow:visible;visibility:visible;isolation:auto;mix-blend-mode:normal;color-interpolation:sRGB;color-interpolation-filters:linearRGB;solid-color:#000000;solid-opacity:1;vector-effect:none;fill:#999999;fill-opacity:1;fill-rule:nonzero;stroke:none;stroke-width:0.194189;stroke-linecap:square;stroke-linejoin:miter;stroke-miterlimit:4;stroke-dasharray:none;stroke-dashoffset:0;stroke-opacity:1;-inkscape-stroke:none;paint-order:stroke fill markers;color-rendering:auto;image-rendering:auto;shape-rendering:auto;text-rendering:auto;enable-background:accumulate;stop-color:#000000"
           d="m 110.69919,103.20365 -2.40642,1.44819 a 0.12050959,0.12050959 0 0 0 0,0.20651 l 2.40642,1.44818 a 0.11320132,0.11320132 0 0 0 0.17154,-0.097 v -2.90892 a 0.11320132,0.11320132 0 0 0 -0.17154,-0.097 z"
           id="path11" />
      </g>
    </g>
  </g>
</svg>
