<svg xmlns="http://www.w3.org/2000/svg" width="153.476" height="30.648" viewBox="0 0 40.607 8.109"><g style="stroke-width:.166143"><path d="m133.85 84.324-.564-.34a.06.06 0 0 0-.057 0l-.134.08a.02.02 0 0 0 0 .034l.277.167a.02.02 0 0 1 0 .034l-.277.167a.02.02 0 0 0 0 .034l.755.453a.02.02 0 0 0 .028-.016v-.162a.06.06 0 0 0-.028-.05l-.374-.226a.02.02 0 0 1 0-.034l.086-.051a.06.06 0 0 1 .057 0l.23.138a.019.019 0 0 0 .03-.016v-.162a.06.06 0 0 0-.03-.05" style="color:#000;font-style:normal;font-variant:normal;font-weight:400;font-stretch:normal;font-size:medium;line-height:normal;font-family:sans-serif;font-variant-ligatures:normal;font-variant-position:normal;font-variant-caps:normal;font-variant-numeric:normal;font-variant-alternates:normal;font-variant-east-asian:normal;font-feature-settings:normal;font-variation-settings:normal;text-indent:0;text-align:start;text-decoration-line:none;text-decoration-style:solid;text-decoration-color:#000;letter-spacing:normal;word-spacing:normal;text-transform:none;writing-mode:lr-tb;direction:ltr;text-orientation:mixed;dominant-baseline:auto;baseline-shift:baseline;text-anchor:start;white-space:normal;shape-padding:0;shape-margin:0;inline-size:0;clip-rule:nonzero;display:inline;overflow:visible;visibility:visible;isolation:auto;mix-blend-mode:normal;color-interpolation:sRGB;color-interpolation-filters:linearRGB;solid-color:#000;solid-opacity:1;vector-effect:none;fill:#008eff;fill-opacity:1;fill-rule:nonzero;stroke:none;stroke-width:.0439589;stroke-linecap:square;stroke-linejoin:miter;stroke-miterlimit:4;stroke-dasharray:none;stroke-dashoffset:0;stroke-opacity:1;-inkscape-stroke:none;paint-order:stroke fill markers;color-rendering:auto;image-rendering:auto;shape-rendering:auto;text-rendering:auto;stop-color:#000" transform="translate(-801.028 -503.23)scale(6.0189)"/><path d="m133.85 83.611-.4.24a.02.02 0 0 0 0 .035l.4.24a.02.02 0 0 0 .028-.016v-.483a.02.02 0 0 0-.028-.016" style="color:#000;font-style:normal;font-variant:normal;font-weight:400;font-stretch:normal;font-size:medium;line-height:normal;font-family:sans-serif;font-variant-ligatures:normal;font-variant-position:normal;font-variant-caps:normal;font-variant-numeric:normal;font-variant-alternates:normal;font-variant-east-asian:normal;font-feature-settings:normal;font-variation-settings:normal;text-indent:0;text-align:start;text-decoration-line:none;text-decoration-style:solid;text-decoration-color:#000;letter-spacing:normal;word-spacing:normal;text-transform:none;writing-mode:lr-tb;direction:ltr;text-orientation:mixed;dominant-baseline:auto;baseline-shift:baseline;text-anchor:start;white-space:normal;shape-padding:0;shape-margin:0;inline-size:0;clip-rule:nonzero;display:inline;overflow:visible;visibility:visible;isolation:auto;mix-blend-mode:normal;color-interpolation:sRGB;color-interpolation-filters:linearRGB;solid-color:#000;solid-opacity:1;vector-effect:none;fill:#999;fill-opacity:1;fill-rule:nonzero;stroke:none;stroke-width:.0439589;stroke-linecap:square;stroke-linejoin:miter;stroke-miterlimit:4;stroke-dasharray:none;stroke-dashoffset:0;stroke-opacity:1;-inkscape-stroke:none;paint-order:stroke fill markers;color-rendering:auto;image-rendering:auto;shape-rendering:auto;text-rendering:auto;stop-color:#000" transform="translate(-801.028 -503.23)scale(6.0189)"/><path d="m134.32 84.64-.037-.122-.036-.127-.033-.132-.03-.134-.027-.136h.138q.013.081.03.167l.034.168.038.147.034-.099.034-.107.032-.106.028-.098h.11l.04.134.044.144.045.132q.018-.065.035-.146t.034-.168.03-.168h.133q-.014.069-.03.136-.013.068-.03.134-.014.067-.032.132-.017.064-.036.126-.017.062-.037.122h-.12l-.047-.128-.045-.136-.044-.14-.044.14-.044.136-.046.128zm.953.011q-.07 0-.125-.032-.053-.032-.083-.09-.03-.059-.03-.136t.031-.135.084-.09q.055-.033.123-.033.07 0 .123.033.054.031.084.09.03.057.03.135 0 .077-.03.136-.029.058-.082.09t-.125.032m0-.105q.036 0 .06-.018.025-.02.039-.054.014-.035.014-.081 0-.047-.014-.081t-.039-.053-.06-.018-.06.018q-.026.02-.04.053-.012.034-.012.08 0 .047.013.082.013.034.038.054.026.018.061.018m.352.093v-.466q.033-.012.082-.023.05-.012.112-.012l.037.002q.022.002.042.006t.033.01l-.02.1-.043-.009q-.024-.004-.055-.004l-.038.002q-.019.003-.028.007v.387zm.385 0v-.708l.122-.02v.423l.044-.047.046-.051.043-.048.035-.04h.145q-.03.036-.065.072-.033.037-.068.073l-.07.072q.028.025.058.059t.06.072q.029.037.053.075.025.036.042.068h-.14q-.023-.036-.053-.078t-.064-.08q-.033-.039-.066-.064v.222zm.924.013q-.083 0-.136-.017-.051-.017-.075-.031l.037-.103q.026.015.07.028.043.014.104.014.066 0 .092-.021.027-.022.027-.057 0-.028-.016-.046-.015-.019-.046-.034t-.078-.03q-.045-.018-.086-.04t-.066-.057q-.025-.036-.025-.094 0-.06.028-.101.029-.043.08-.065.053-.024.124-.024.063 0 .11.015.048.014.078.03l-.039.102q-.027-.015-.062-.026-.034-.01-.08-.01-.055 0-.082.016-.026.017-.026.053 0 .027.016.044t.043.03q.027.012.06.024.066.023.109.049.044.025.066.063.024.038.024.1 0 .06-.028.102-.029.042-.085.065-.055.021-.138.021m.538-.002q-.072 0-.113-.025-.04-.026-.057-.072-.016-.047-.016-.11v-.423l.122-.02v.148h.173v.102h-.173v.192q0 .035.007.058.008.023.026.034.019.011.05.011.025 0 .049-.004.024-.006.043-.013l.017.096q-.022.01-.053.018-.03.008-.075.008m.379 0q-.061 0-.107-.016t-.072-.05-.026-.095q0-.056.028-.09.03-.034.077-.048.048-.015.103-.015.027 0 .05.003t.034.007v-.017q0-.026-.01-.047-.007-.02-.03-.032-.022-.012-.06-.012-.04 0-.073.006-.033.005-.054.014l-.016-.1q.022-.007.064-.015t.092-.008q.078 0 .123.024.045.025.064.069.018.044.018.104v.294q-.027.006-.08.014-.053.01-.125.01m.009-.096.045-.001q.02-.002.033-.005v-.12q-.008-.003-.028-.005-.017-.002-.037-.002-.027 0-.052.005-.023.005-.038.019t-.015.041q0 .038.024.053.026.015.068.015m.51.096q-.072 0-.113-.025-.04-.026-.057-.072-.016-.047-.016-.11v-.423l.122-.02v.148h.173v.102h-.173v.192q0 .035.007.058.008.023.026.034.019.011.05.011.025 0 .049-.004.024-.006.043-.013l.018.096q-.023.01-.054.018-.03.008-.075.008m.223-.01v-.492h.122v.491zm.06-.57q-.03 0-.052-.02t-.022-.055.022-.054q.023-.02.053-.02t.052.02q.023.02.023.054 0 .035-.023.055-.021.02-.052.02m.413.581q-.07 0-.124-.032t-.084-.09-.03-.136.031-.135.084-.09q.055-.033.123-.033.07 0 .123.033.054.031.084.09.03.057.03.135 0 .077-.03.136-.029.058-.082.09t-.125.032m0-.105q.036 0 .06-.018.026-.02.039-.054.014-.035.014-.081 0-.047-.014-.081-.013-.034-.039-.053-.024-.018-.06-.018t-.06.018q-.026.02-.04.053-.012.034-.012.08 0 .047.013.082.013.034.038.054.026.018.061.018m.352.093v-.474q.033-.01.087-.019.054-.01.117-.01.083 0 .128.03.046.028.063.078.019.051.019.119v.276h-.122v-.26q0-.05-.009-.08t-.029-.043-.058-.014q-.022 0-.042.002l-.032.004v.391z" aria-label="Work Station" style="font-weight:700;font-size:.937469px;font-family:Ubuntu;-inkscape-font-specification:&quot;Ubuntu Bold&quot;;fill:#999;stroke-width:.109897;stroke-linecap:square;paint-order:stroke fill markers" transform="translate(-801.028 -503.23)scale(6.0189)"/></g></svg>