<?xml version="1.0" encoding="UTF-8" standalone="no"?>
<!-- Created with Inkscape (http://www.inkscape.org/) -->

<svg
   width="13.621598mm"
   height="2.7200954mm"
   viewBox="0 0 13.621598 2.7200954"
   version="1.1"
   id="svg1"
   inkscape:version="1.4 (e7c3feb100, 2024-10-09)"
   sodipodi:docname="logo.svg"
   xmlns:inkscape="http://www.inkscape.org/namespaces/inkscape"
   xmlns:sodipodi="http://sodipodi.sourceforge.net/DTD/sodipodi-0.dtd"
   xmlns="http://www.w3.org/2000/svg"
   xmlns:svg="http://www.w3.org/2000/svg">
  <sodipodi:namedview
     id="namedview1"
     pagecolor="#ffffff"
     bordercolor="#000000"
     borderopacity="0.25"
     inkscape:showpageshadow="2"
     inkscape:pageopacity="0.0"
     inkscape:pagecheckerboard="0"
     inkscape:deskcolor="#d1d1d1"
     inkscape:document-units="mm"
     inkscape:zoom="11.160606"
     inkscape:cx="30.105892"
     inkscape:cy="18.950584"
     inkscape:window-width="1920"
     inkscape:window-height="1011"
     inkscape:window-x="0"
     inkscape:window-y="0"
     inkscape:window-maximized="1"
     inkscape:current-layer="layer1" />
  <defs
     id="defs1" />
  <g
     inkscape:label="Capa 1"
     inkscape:groupmode="layer"
     id="layer1"
     transform="translate(-129.64795,-82.921899)">
    <g
       id="g1"
       transform="matrix(2.019032,0,0,2.019032,-139.05584,-85.886007)"
       style="stroke-width:0.495287">
      <path
         style="color:#000000;font-style:normal;font-variant:normal;font-weight:normal;font-stretch:normal;font-size:medium;line-height:normal;font-family:sans-serif;font-variant-ligatures:normal;font-variant-position:normal;font-variant-caps:normal;font-variant-numeric:normal;font-variant-alternates:normal;font-variant-east-asian:normal;font-feature-settings:normal;font-variation-settings:normal;text-indent:0;text-align:start;text-decoration-line:none;text-decoration-style:solid;text-decoration-color:#000000;letter-spacing:normal;word-spacing:normal;text-transform:none;writing-mode:lr-tb;direction:ltr;text-orientation:mixed;dominant-baseline:auto;baseline-shift:baseline;text-anchor:start;white-space:normal;shape-padding:0;shape-margin:0;inline-size:0;clip-rule:nonzero;display:inline;overflow:visible;visibility:visible;isolation:auto;mix-blend-mode:normal;color-interpolation:sRGB;color-interpolation-filters:linearRGB;solid-color:#000000;solid-opacity:1;vector-effect:none;fill:#008eff;fill-opacity:1;fill-rule:nonzero;stroke:none;stroke-width:0.131044;stroke-linecap:square;stroke-linejoin:miter;stroke-miterlimit:4;stroke-dasharray:none;stroke-dashoffset:0;stroke-opacity:1;-inkscape-stroke:none;paint-order:stroke fill markers;color-rendering:auto;image-rendering:auto;shape-rendering:auto;text-rendering:auto;enable-background:accumulate;stop-color:#000000"
         d="m 133.84992,84.323948 -0.56362,-0.339304 a 0.05573425,0.05573425 0 0 0 -0.0571,-2.12e-4 l -0.13394,0.07928 a 0.01988793,0.01988793 0 0 0 -1.5e-4,0.03414 l 0.27687,0.167148 a 0.02005956,0.02005956 0 0 1 -2e-5,0.03436 l -0.27683,0.166696 a 0.01999136,0.01999136 0 0 0 3e-5,0.03427 l 0.75477,0.452575 a 0.01884302,0.01884302 0 0 0 0.0285,-0.01617 v -0.161872 a 0.0588934,0.0588934 0 0 0 -0.0285,-0.05044 l -0.37347,-0.225073 a 0.02002981,0.02002981 0 0 1 1e-5,-0.03432 l 0.0856,-0.05149 a 0.05531566,0.05531566 0 0 1 0.057,0 l 0.23082,0.138821 a 0.0188136,0.0188136 0 0 0 0.0285,-0.01611 v -0.161872 a 0.05886094,0.05886094 0 0 0 -0.0285,-0.05043 z"
         id="path15" />
      <path
         style="color:#000000;font-style:normal;font-variant:normal;font-weight:normal;font-stretch:normal;font-size:medium;line-height:normal;font-family:sans-serif;font-variant-ligatures:normal;font-variant-position:normal;font-variant-caps:normal;font-variant-numeric:normal;font-variant-alternates:normal;font-variant-east-asian:normal;font-feature-settings:normal;font-variation-settings:normal;text-indent:0;text-align:start;text-decoration-line:none;text-decoration-style:solid;text-decoration-color:#000000;letter-spacing:normal;word-spacing:normal;text-transform:none;writing-mode:lr-tb;direction:ltr;text-orientation:mixed;dominant-baseline:auto;baseline-shift:baseline;text-anchor:start;white-space:normal;shape-padding:0;shape-margin:0;inline-size:0;clip-rule:nonzero;display:inline;overflow:visible;visibility:visible;isolation:auto;mix-blend-mode:normal;color-interpolation:sRGB;color-interpolation-filters:linearRGB;solid-color:#000000;solid-opacity:1;vector-effect:none;fill:#999999;fill-opacity:1;fill-rule:nonzero;stroke:none;stroke-width:0.131044;stroke-linecap:square;stroke-linejoin:miter;stroke-miterlimit:4;stroke-dasharray:none;stroke-dashoffset:0;stroke-opacity:1;-inkscape-stroke:none;paint-order:stroke fill markers;color-rendering:auto;image-rendering:auto;shape-rendering:auto;text-rendering:auto;enable-background:accumulate;stop-color:#000000"
         d="m 133.84992,83.611021 -0.39981,0.240607 a 0.02002186,0.02002186 0 0 0 0,0.03431 l 0.39981,0.240606 a 0.01880764,0.01880764 0 0 0 0.0285,-0.01611 v -0.483298 a 0.01880764,0.01880764 0 0 0 -0.0285,-0.01611 z"
         id="path11" />
      <path
         d="m 134.32093,84.639137 q -0.0197,-0.05906 -0.0384,-0.120933 -0.0178,-0.06281 -0.0356,-0.127496 -0.0169,-0.06468 -0.0328,-0.131246 -0.015,-0.06656 -0.03,-0.134058 -0.0141,-0.0675 -0.0272,-0.135933 h 0.13781 q 0.0131,0.08062 0.03,0.16687 0.0169,0.08625 0.0347,0.167807 0.0187,0.08062 0.0375,0.147182 0.0169,-0.04687 0.0337,-0.09937 0.0178,-0.05344 0.0347,-0.106872 0.0169,-0.05437 0.0319,-0.105934 0.015,-0.0525 0.0281,-0.09843 h 0.10875 q 0.0188,0.06187 0.0403,0.134058 0.0216,0.07219 0.045,0.14437 0.0234,0.07125 0.045,0.132183 0.0178,-0.06562 0.0347,-0.146245 0.0178,-0.08156 0.0338,-0.167807 0.0169,-0.08625 0.0309,-0.167807 h 0.13218 q -0.0141,0.06844 -0.0291,0.135933 -0.0141,0.0675 -0.03,0.134058 -0.015,0.06656 -0.0328,0.131246 -0.0169,0.06468 -0.0356,0.126558 -0.0178,0.06187 -0.0375,0.121871 h -0.12 q -0.0234,-0.06281 -0.0469,-0.128433 -0.0225,-0.06656 -0.045,-0.135933 -0.0216,-0.06937 -0.0441,-0.14062 -0.0216,0.07125 -0.0441,0.14062 -0.0216,0.06937 -0.0441,0.135933 -0.0225,0.06562 -0.0459,0.128433 z m 0.95223,0.01219 q -0.0703,0 -0.12468,-0.03187 -0.0534,-0.03281 -0.0834,-0.09093 -0.03,-0.05812 -0.03,-0.135933 0,-0.07781 0.0309,-0.134996 0.0309,-0.05719 0.0844,-0.09 0.0544,-0.03281 0.12281,-0.03281 0.0694,0 0.12281,0.03281 0.0544,0.03187 0.0844,0.09 0.03,0.05719 0.03,0.134996 0,0.07781 -0.03,0.135933 -0.0291,0.05812 -0.0825,0.09093 -0.0525,0.03187 -0.12468,0.03187 z m 0,-0.104996 q 0.0356,0 0.06,-0.01875 0.0253,-0.01875 0.0384,-0.05344 0.0141,-0.03469 0.0141,-0.08156 0,-0.04687 -0.0141,-0.08062 -0.0131,-0.03375 -0.0384,-0.0525 -0.0244,-0.01875 -0.06,-0.01875 -0.0356,0 -0.0609,0.01875 -0.0253,0.01875 -0.0384,0.0525 -0.0131,0.03375 -0.0131,0.08062 0,0.04687 0.0131,0.08156 0.0131,0.03375 0.0384,0.05344 0.0253,0.01875 0.0609,0.01875 z m 0.35155,0.09281 v -0.465922 q 0.0337,-0.01219 0.0825,-0.02344 0.0497,-0.01219 0.11156,-0.01219 0.0159,0 0.0375,0.0028 0.0216,0.0019 0.0413,0.0056 0.0206,0.0037 0.0337,0.0094 l -0.0206,0.101247 q -0.0169,-0.0047 -0.0422,-0.0094 -0.0244,-0.0047 -0.0553,-0.0047 -0.0188,0 -0.0384,0.0028 -0.0187,0.0028 -0.0281,0.0066 v 0.387174 z m 0.3853,0 v -0.707789 l 0.12187,-0.01969 v 0.422799 q 0.0216,-0.0225 0.0441,-0.04781 0.0234,-0.02531 0.0459,-0.05062 0.0234,-0.02531 0.0431,-0.04781 0.0206,-0.02344 0.0347,-0.04031 h 0.1453 q -0.0309,0.03562 -0.0647,0.07219 -0.0337,0.03656 -0.0684,0.07312 -0.0347,0.03562 -0.0703,0.07219 0.0281,0.02437 0.0581,0.05812 0.0309,0.03375 0.06,0.07219 0.0291,0.0375 0.0534,0.075 0.0253,0.03656 0.0422,0.06844 h -0.14062 q -0.0225,-0.03656 -0.0525,-0.07781 -0.03,-0.04219 -0.0637,-0.08062 -0.0337,-0.03844 -0.0666,-0.06375 v 0.22218 z m 0.92434,0.01312 q -0.0834,0 -0.13593,-0.01687 -0.0516,-0.01781 -0.0759,-0.03187 l 0.0375,-0.102184 q 0.0262,0.015 0.0694,0.02812 0.0431,0.01313 0.10499,0.01313 0.0656,0 0.0919,-0.02062 0.0262,-0.02156 0.0262,-0.05719 0,-0.02812 -0.0159,-0.04594 -0.015,-0.01875 -0.0459,-0.03375 -0.0309,-0.015 -0.0778,-0.03094 -0.045,-0.01687 -0.0863,-0.03844 -0.0403,-0.0225 -0.0656,-0.05812 -0.0253,-0.03562 -0.0253,-0.09375 0,-0.05906 0.0281,-0.101246 0.0291,-0.04219 0.0806,-0.06469 0.0525,-0.02344 0.12374,-0.02344 0.0628,0 0.10969,0.01406 0.0478,0.01406 0.0778,0.03094 l -0.0384,0.101247 q -0.0272,-0.015 -0.0619,-0.02531 -0.0347,-0.01125 -0.0806,-0.01125 -0.0544,0 -0.0816,0.01687 -0.0262,0.01687 -0.0262,0.05344 0,0.02625 0.0159,0.04312 0.0159,0.01688 0.0431,0.03 0.0272,0.01219 0.0609,0.02438 0.0647,0.02344 0.10781,0.04875 0.0441,0.02531 0.0666,0.06375 0.0234,0.0375 0.0234,0.100309 0,0.05906 -0.0281,0.101247 -0.0281,0.04219 -0.0844,0.06469 -0.0553,0.02156 -0.13781,0.02156 z m 0.53811,-0.0019 q -0.0722,0 -0.11343,-0.02531 -0.0403,-0.02625 -0.0572,-0.07218 -0.0159,-0.04687 -0.0159,-0.110621 v -0.421861 l 0.12188,-0.01969 v 0.147183 h 0.17343 v 0.102184 h -0.17343 v 0.192181 q 0,0.03469 0.007,0.05812 0.008,0.0225 0.0262,0.03375 0.0188,0.01125 0.0497,0.01125 0.0253,0 0.0488,-0.0047 0.0244,-0.0056 0.0431,-0.01312 l 0.0178,0.09656 q -0.0225,0.0094 -0.0534,0.01781 -0.0309,0.0084 -0.075,0.0084 z m 0.37827,-9.38e-4 q -0.0609,0 -0.10687,-0.015 -0.0459,-0.01594 -0.0722,-0.05062 -0.0253,-0.03562 -0.0253,-0.09468 0,-0.05625 0.0281,-0.09 0.0291,-0.03375 0.0769,-0.04781 0.0478,-0.015 0.10218,-0.015 0.0272,0 0.0497,0.0028 0.0234,0.0028 0.0347,0.0066 v -0.01687 q 0,-0.02625 -0.009,-0.04687 -0.008,-0.02062 -0.0309,-0.03187 -0.0216,-0.01219 -0.06,-0.01219 -0.0403,0 -0.0731,0.0056 -0.0328,0.0056 -0.0544,0.01406 l -0.0159,-0.09937 q 0.0225,-0.0075 0.0647,-0.015 0.0431,-0.0084 0.0919,-0.0084 0.0778,0 0.12281,0.02437 0.045,0.02437 0.0637,0.06843 0.0187,0.04406 0.0187,0.104059 v 0.294366 q -0.0272,0.0056 -0.0806,0.01406 -0.0525,0.0094 -0.12468,0.0094 z m 0.009,-0.09562 q 0.0244,0 0.045,-9.38e-4 0.0206,-0.0019 0.0328,-0.0047 v -0.119996 q -0.008,-0.0028 -0.0272,-0.0047 -0.0178,-0.0028 -0.0375,-0.0028 -0.0272,0 -0.0516,0.0056 -0.0234,0.0047 -0.0384,0.01875 -0.015,0.01406 -0.015,0.04125 0,0.0375 0.0244,0.0525 0.0253,0.015 0.0675,0.015 z m 0.51092,0.09656 q -0.0722,0 -0.11343,-0.02531 -0.0403,-0.02625 -0.0572,-0.07218 -0.0159,-0.04687 -0.0159,-0.110621 v -0.421861 l 0.12187,-0.01969 v 0.147183 h 0.17343 v 0.102184 h -0.17343 v 0.192181 q 0,0.03469 0.007,0.05812 0.008,0.0225 0.0263,0.03375 0.0187,0.01125 0.0497,0.01125 0.0253,0 0.0488,-0.0047 0.0244,-0.0056 0.0431,-0.01312 l 0.0178,0.09656 q -0.0225,0.0094 -0.0534,0.01781 -0.0309,0.0084 -0.075,0.0084 z m 0.22218,-0.01125 V 84.14788 h 0.12187 v 0.491233 z m 0.0609,-0.569043 q -0.03,0 -0.0525,-0.01969 -0.0225,-0.02063 -0.0225,-0.05531 0,-0.03469 0.0225,-0.05437 0.0225,-0.02062 0.0525,-0.02062 0.0309,0 0.0525,0.02062 0.0225,0.01969 0.0225,0.05437 0,0.03469 -0.0225,0.05531 -0.0216,0.01969 -0.0525,0.01969 z m 0.41248,0.58123 q -0.0703,0 -0.12468,-0.03187 -0.0534,-0.03281 -0.0834,-0.09093 -0.03,-0.05812 -0.03,-0.135933 0,-0.07781 0.0309,-0.134996 0.0309,-0.05719 0.0844,-0.09 0.0544,-0.03281 0.1228,-0.03281 0.0694,0 0.12281,0.03281 0.0544,0.03187 0.0844,0.09 0.03,0.05719 0.03,0.134996 0,0.07781 -0.03,0.135933 -0.0291,0.05812 -0.0825,0.09093 -0.0525,0.03187 -0.12469,0.03187 z m 0,-0.104996 q 0.0356,0 0.06,-0.01875 0.0253,-0.01875 0.0384,-0.05344 0.0141,-0.03469 0.0141,-0.08156 0,-0.04687 -0.0141,-0.08062 -0.0131,-0.03375 -0.0384,-0.0525 -0.0244,-0.01875 -0.06,-0.01875 -0.0356,0 -0.0609,0.01875 -0.0253,0.01875 -0.0384,0.0525 -0.0131,0.03375 -0.0131,0.08062 0,0.04687 0.0131,0.08156 0.0131,0.03375 0.0384,0.05344 0.0253,0.01875 0.0609,0.01875 z m 0.35156,0.09281 v -0.474359 q 0.0337,-0.0094 0.0872,-0.01875 0.0544,-0.0094 0.11718,-0.0094 0.0825,0 0.1275,0.02906 0.0459,0.02812 0.0637,0.07875 0.0187,0.05062 0.0187,0.118121 v 0.276553 h -0.12187 V 84.37941 q 0,-0.04969 -0.009,-0.07968 -0.008,-0.03094 -0.0291,-0.04406 -0.0206,-0.01406 -0.0581,-0.01406 -0.0216,0 -0.0422,0.0028 -0.0197,0.0019 -0.0319,0.0038 v 0.390924 z"
         id="text15"
         style="font-weight:bold;font-size:0.937469px;font-family:Ubuntu;-inkscape-font-specification:'Ubuntu Bold';fill:#999999;stroke-width:0.327611;stroke-linecap:square;paint-order:stroke fill markers"
         aria-label="Work Station" />
    </g>
  </g>
</svg>
